<?xml version="1.0" standalone="no"?>
<!DOCTYPE svg PUBLIC "-//W3C//DTD SVG 20010904//EN"
 "http://www.w3.org/TR/2001/REC-SVG-20010904/DTD/svg10.dtd">
<svg version="1.0" xmlns="http://www.w3.org/2000/svg"
 width="500.000000pt" height="500.000000pt" viewBox="0 0 500.000000 500.000000"
 preserveAspectRatio="xMidYMid meet">
<metadata>
Created by potrace 1.14, written by Peter Selinger 2001-2017
</metadata>
<g transform="translate(0.000000,500.000000) scale(0.100000,-0.100000)"
fill="#000000" stroke="none">
<path d="M2278 3863 c7 -3 16 -2 19 1 4 3 -2 6 -13 5 -11 0 -14 -3 -6 -6z"/>
<path d="M2588 3863 c6 -2 18 -2 25 0 6 3 1 5 -13 5 -14 0 -19 -2 -12 -5z"/>
<path d="M2198 3853 c6 -2 18 -2 25 0 6 3 1 5 -13 5 -14 0 -19 -2 -12 -5z"/>
<path d="M2158 3843 c7 -3 16 -2 19 1 4 3 -2 6 -13 5 -11 0 -14 -3 -6 -6z"/>
<path d="M2718 3843 c7 -3 16 -2 19 1 4 3 -2 6 -13 5 -11 0 -14 -3 -6 -6z"/>
<path d="M2961 3588 c-1 -26 4 -50 9 -53 12 -7 12 38 0 75 -7 20 -8 16 -9 -22z"/>
<path d="M3022 3536 c-17 -31 -27 -58 -23 -60 8 -5 65 104 58 111 -3 2 -18
-21 -35 -51z"/>
<path d="M3300 3576 c0 -2 8 -10 18 -17 15 -13 16 -12 3 4 -13 16 -21 21 -21
13z"/>
<path d="M1170 3543 c0 -3 14 -18 30 -32 46 -40 52 -94 48 -481 -3 -335 -3
-339 -25 -362 -13 -14 -23 -27 -23 -31 0 -4 36 -7 80 -7 82 0 99 8 55 28 -13
6 -32 26 -42 44 -16 30 -18 68 -21 378 -2 295 0 342 12 327 7 -9 83 -132 167
-272 91 -151 160 -254 169 -254 9 0 78 106 173 269 88 149 163 273 168 276 11
7 11 -632 0 -700 -5 -32 -16 -56 -30 -67 -11 -9 -21 -20 -21 -23 0 -3 50 -6
112 -6 l112 0 -30 31 -29 30 0 377 c0 341 2 380 18 409 9 18 26 37 37 43 38
20 20 30 -52 30 l-73 0 -165 -280 c-91 -154 -167 -280 -170 -280 -3 0 -81 126
-175 280 l-169 280 -78 0 c-43 0 -78 -3 -78 -7z"/>
<path d="M3415 3470 c44 -44 82 -80 85 -80 2 0 -31 36 -75 80 -44 44 -82 80
-85 80 -2 0 31 -36 75 -80z"/>
<path d="M3102 3488 c-44 -66 -35 -73 11 -9 20 28 33 52 29 55 -4 2 -22 -18
-40 -46z"/>
<path d="M3237 3385 c-20 -24 -37 -47 -37 -51 0 -10 39 27 62 59 33 46 15 40
-25 -8z"/>
<path d="M3116 3398 c3 -5 10 -6 15 -3 13 9 11 12 -6 12 -8 0 -12 -4 -9 -9z"/>
<path d="M3525 3350 c10 -11 20 -20 23 -20 3 0 -3 9 -13 20 -10 11 -20 20 -23
20 -3 0 3 -9 13 -20z"/>
<path d="M3330 3281 c-25 -22 -43 -42 -40 -44 3 -3 28 14 55 38 28 24 46 44
40 44 -5 0 -30 -17 -55 -38z"/>
<path d="M3430 3150 c-40 -62 -34 -77 6 -18 44 64 46 68 36 68 -6 0 -24 -23
-42 -50z"/>
<path d="M3676 3117 c3 -10 9 -15 12 -12 3 3 0 11 -7 18 -10 9 -11 8 -5 -6z"/>
<path d="M2386 2826 c-49 -19 -112 -80 -127 -124 -6 -19 -9 -52 -6 -73 3 -22
2 -39 -3 -39 -19 0 -99 -83 -125 -131 -24 -44 -30 -66 -30 -119 1 -98 45 -164
142 -211 42 -21 63 -24 158 -24 100 0 116 3 173 29 119 55 188 164 180 284 -2
31 -7 64 -11 72 -6 12 3 15 50 15 77 1 145 34 181 88 22 32 27 52 27 100 0 52
-3 61 -28 83 -51 44 -147 24 -147 -30 0 -44 55 -44 66 0 5 18 13 24 34 24 57
0 84 -77 46 -135 -31 -47 -72 -57 -235 -53 -163 3 -202 -7 -243 -64 -50 -72
-24 -168 46 -168 38 0 56 15 56 47 0 27 -43 42 -71 24 -29 -18 -39 -13 -39 17
0 49 40 76 119 80 61 4 70 2 98 -22 63 -53 51 -149 -27 -227 -62 -61 -127 -84
-240 -83 -140 1 -236 58 -265 158 -24 81 -4 148 60 205 l36 32 30 -26 c36 -30
70 -32 93 -6 36 40 -8 82 -69 67 -21 -5 -25 -2 -31 29 -9 49 2 83 40 121 54
54 122 58 144 9 16 -35 56 -31 60 6 2 14 -3 31 -10 37 -23 19 -90 23 -132 8z"/>
<path d="M3822 2645 c0 -16 2 -22 5 -12 2 9 2 23 0 30 -3 6 -5 -1 -5 -18z"/>
<path d="M1093 2405 c0 -22 2 -30 4 -17 2 12 2 30 0 40 -3 9 -5 -1 -4 -23z"/>
<path d="M3206 2335 c-227 -58 -360 -249 -343 -498 12 -191 124 -343 299 -404
80 -27 263 -25 339 5 128 51 228 157 267 281 23 75 23 236 0 311 -41 132 -150
245 -280 289 -82 29 -205 35 -282 16z m209 -54 c216 -107 340 -471 233 -686
-28 -56 -65 -93 -123 -123 -68 -36 -205 -38 -278 -4 -158 72 -277 281 -280
492 -2 122 20 193 79 259 94 105 234 128 369 62z"/>
<path d="M1121 2204 c0 -11 3 -14 6 -6 3 7 2 16 -1 19 -3 4 -6 -2 -5 -13z"/>
<path d="M1210 1944 c0 -6 7 -19 16 -30 14 -18 14 -18 3 6 -14 31 -19 36 -19
24z"/>
<path d="M1280 1810 c6 -11 13 -20 16 -20 2 0 0 9 -6 20 -6 11 -13 20 -16 20
-2 0 0 -9 6 -20z"/>
<path d="M1600 1765 c-15 -18 -16 -63 -2 -77 6 -6 8 -1 5 16 -3 15 2 37 11 51
18 27 7 35 -14 10z"/>
<path d="M1697 1740 c3 -13 -5 -29 -25 -50 -17 -16 -25 -30 -18 -30 34 0 73
78 47 94 -5 4 -7 -3 -4 -14z"/>
<path d="M1760 1609 c0 -44 4 -68 10 -64 6 3 10 35 10 71 0 36 -4 64 -10 64
-6 0 -10 -30 -10 -71z"/>
<path d="M1430 1606 c0 -2 8 -10 18 -17 15 -13 16 -12 3 4 -13 16 -21 21 -21
13z"/>
<path d="M1880 1590 c0 -6 -12 -28 -26 -50 -15 -22 -25 -43 -22 -46 5 -5 68
87 68 99 0 4 -4 7 -10 7 -5 0 -10 -5 -10 -10z"/>
<path d="M1565 1470 c10 -11 20 -20 23 -20 3 0 -3 9 -13 20 -10 11 -20 20 -23
20 -3 0 3 -9 13 -20z"/>
<path d="M1610 1436 c0 -2 8 -10 18 -17 15 -13 16 -12 3 4 -13 16 -21 21 -21
13z"/>
<path d="M1800 1305 c0 -7 101 -57 106 -53 2 2 -21 16 -51 31 -30 15 -55 25
-55 22z"/>
<path d="M2000 1212 c8 -5 26 -13 40 -16 17 -5 20 -4 10 2 -8 5 -26 13 -40 16
-17 5 -20 4 -10 -2z"/>
<path d="M2158 1163 c7 -3 16 -2 19 1 4 3 -2 6 -13 5 -11 0 -14 -3 -6 -6z"/>
<path d="M2258 1143 c7 -3 16 -2 19 1 4 3 -2 6 -13 5 -11 0 -14 -3 -6 -6z"/>
</g>
</svg>
